<svg xmlns="http://www.w3.org/2000/svg" height="30px" viewBox="0 0 96.21 35.22"><defs><style>.cls-1{fill:#0097e4;}.cls-2{font-size:16px;fill:#f2f2f2;font-family:SilkaMono-Bold, Silka Mono;font-weight:700;}</style></defs><title>gh_css</title><g id="Layer_2" data-name="Layer 2"><g id="Layer_1-2" data-name="Layer 1"><rect x="0.5" y="0.5" width="95.21" height="34.22" rx="0.5"/><path class="cls-1" d="M95.21,1V34.22H1V1H95.21m0-1H1A1,1,0,0,0,0,1V34.22a1,1,0,0,0,1,1H95.21a1,1,0,0,0,1-1V1a1,1,0,0,0-1-1Z"/><text class="cls-2" transform="translate(36.74 23.09)">CSS</text><path class="cls-1" d="M8.25,8h17.5L24.16,26,17,28,9.84,26Zm14.24,3.67h-11l.18,2.19h8.43l-.21,2.26H14.38l.2,2.14h5.15l-.31,2.94L17,21.87l-2.46-.67-.16-1.76H12.2l.25,3.21L17,24.07l4.48-1.28,1-11.12Z"/></g></g></svg>