<svg xmlns="http://www.w3.org/2000/svg" height="30px" viewBox="0 0 96.21 35.22"><defs><style>.cls-1{fill:#f05032;}.cls-2{font-size:17.72px;fill:#f2f2f2;font-family:SilkaMono-Bold, Silka Mono;font-weight:700;}</style></defs><title>gh_git</title><g id="Layer_2" data-name="Layer 2"><g id="Layer_1-2" data-name="Layer 1"><rect x="0.5" y="0.5" width="95.21" height="34.22" rx="0.5"/><path class="cls-1" d="M95.21,1V34.22H1V1H95.21m0-1H1A1,1,0,0,0,0,1V34.22a1,1,0,0,0,1,1H95.21a1,1,0,0,0,1-1V1a1,1,0,0,0-1-1Z"/><text class="cls-2" transform="translate(36.74 23.72) scale(0.9 1)">Git</text><path class="cls-1" d="M27.28,17.12,18,7.79a1.39,1.39,0,0,0-1.95,0L14.07,9.73l2.46,2.46a1.61,1.61,0,0,1,1.68.39,1.65,1.65,0,0,1,.39,1.69L21,16.64a1.63,1.63,0,1,1-1,.93l-2.21-2.21v5.81a1.8,1.8,0,0,1,.43.31,1.64,1.64,0,0,1-2.32,2.31,1.63,1.63,0,0,1,0-2.31,1.6,1.6,0,0,1,.54-.36V15.25a1.57,1.57,0,0,1-.54-.35,1.64,1.64,0,0,1-.35-1.79l-2.41-2.43-6.4,6.4a1.38,1.38,0,0,0,0,1.94l9.33,9.33a1.36,1.36,0,0,0,1.94,0l9.29-9.28a1.38,1.38,0,0,0,0-1.95"/></g></g></svg>