<svg xmlns="http://www.w3.org/2000/svg" height="30px" viewBox="0 0 96.21 35.22"><defs><style>.cls-1{fill:#f46442;}.cls-2{font-size:16px;fill:#f2f2f2;font-family:SilkaMono-Bold, Silka Mono;font-weight:700;}</style></defs><title>gh_html</title><g id="Layer_2" data-name="Layer 2"><g id="Layer_1-2" data-name="Layer 1"><rect class="cls-1" x="2" y="2.61" width="94.21" height="30"/><rect x="0.5" y="0.5" width="95.21" height="34.22" rx="0.5"/><path class="cls-1" d="M95.21,1V34.22H1V1H95.21m0-1H1A1,1,0,0,0,0,1V34.22a1,1,0,0,0,1,1H95.21a1,1,0,0,0,1-1V1a1,1,0,0,0-1-1Z"/><text class="cls-2" transform="translate(36.74 23.13)">HTML</text><path class="cls-1" d="M8.25,8h17.5L24.16,26,17,28,9.84,26Zm5.86,8.13-.19-2.27H22.3l.19-2.18h-11l.58,6.67H19.7l-.28,2.86L17,21.91l-2.46-.68-.16-1.76H12.21L12.48,23,17,24.16,21.48,23l.62-6.79Z"/></g></g></svg>