<svg xmlns="http://www.w3.org/2000/svg" height="30px" viewBox="0 0 160.81 35.22"><defs><style>.cls-1{fill:#f2bf3f;}.cls-2{font-size:16px;fill:#f2f2f2;font-family:SilkaMono-Bold, Silka Mono;font-weight:700;}</style></defs><title>gh_js</title><g id="Layer_2" data-name="Layer 2"><g id="Layer_1-2" data-name="Layer 1"><rect x="0.5" y="0.5" width="159.81" height="34.22" rx="0.5"/><path class="cls-1" d="M159.81,1V34.22H1V1H159.81m0-1H1A1,1,0,0,0,0,1V34.22a1,1,0,0,0,1,1H159.81a1,1,0,0,0,1-1V1a1,1,0,0,0-1-1Z"/><text class="cls-2" transform="translate(36.74 23.13)">JavaScript</text><path class="cls-1" d="M7,8H27V28H7ZM25.36,23.26c-.14-.91-.74-1.68-2.5-2.39-.61-.29-1.3-.49-1.5-.95a1,1,0,0,1,0-.59,1,1,0,0,1,1.27-.55,1.37,1.37,0,0,1,.81.75l1.46-.94a3.32,3.32,0,0,0-.49-.65A2.77,2.77,0,0,0,22,17.08l-.59.07A2.68,2.68,0,0,0,20,18a2.62,2.62,0,0,0,.47,3.73c1.14.85,2.8,1,3,1.83.2,1-.73,1.29-1.64,1.18a2.19,2.19,0,0,1-1.46-1.11l-1.53.87a3.52,3.52,0,0,0,.68.93c1.45,1.46,5.07,1.38,5.72-.84a2.76,2.76,0,0,0,.06-1.38Zm-7.48-6H16c0,1.62,0,3.22,0,4.84a7.85,7.85,0,0,1-.11,2.26,1.07,1.07,0,0,1-1.31.4,1.63,1.63,0,0,1-.69-.71,1,1,0,0,0-.1-.17l-1.52.94a2.9,2.9,0,0,0,1.1,1.27,3.66,3.66,0,0,0,2.67.33,2.34,2.34,0,0,0,1.51-1.17,5.67,5.67,0,0,0,.33-2.79c0-1.71,0-3.43,0-5.15Z"/></g></g></svg>